<?xml version="1.0" encoding="UTF-8"?><svg id="a" xmlns="http://www.w3.org/2000/svg" viewBox="0 0 469.76 144.3"><defs><style>.b{fill:#231f20;}</style></defs><path class="b" d="M456.45,25.15c-.52,.43-.83,.94-.95,1.32l3.66,1.13-2.71-2.45Z"/><path class="b" d="M217.12,96.69c.26,1.13,.39,2.27,.39,3.41,0,1.65-.13,3.1-.41,4.42-.26,1.21-.54,2.22-.85,3.08l-.19,.51-.28,.46c-.99,1.56-2.27,2.99-3.8,4.24-1.34,1.09-2.78,2.07-4.27,2.88-1.4,.77-2.8,1.43-4.15,1.97-1.24,.5-2.26,.87-3.13,1.14l-3.6,1.36c-1.54,.58-3.21,1.22-5.01,1.92-1.83,.7-3.71,1.43-5.66,2.16l-5.45,2.07c-1.7,.64-3.21,1.22-4.53,1.71-1.33,.51-2.29,.86-2.87,1.05-2.49,.93-5.25,1.97-8.28,3.12-3.07,1.17-6.21,2.32-9.33,3.4-3.15,1.09-6.18,2.02-8.99,2.78-3.18,.85-5.83,1.27-8.11,1.27-2.71,0-4.86-.23-6.58-.71-1.7-.48-3.27-1.15-4.66-2.01-1.21-.75-2.45-1.66-3.66-2.7-.83-.71-2-1.54-3.47-2.45-2.44-1.5-4.22-3.62-5.27-6.29-.87-2.21-1.31-4.6-1.31-7.1,0-1.13,.08-2.43,.25-3.84,.16-1.3,.36-2.69,.61-4.14,.25-1.42,.53-2.84,.84-4.21,.33-1.44,.7-2.76,1.11-3.92l4.91-14.89c2.63-8.08,5.15-15.84,7.55-23.27,2.38-7.37,4.51-14.27,6.33-20.52,1.8-6.18,3.25-11.73,4.31-16.47,1.02-4.55,1.58-8.16,1.69-10.72l.02-.53,.13-.5c.94-3.7,2.69-6.74,5.2-9.04,2.69-2.47,6-3.78,9.58-3.78,2.37,0,4.5,.59,6.31,1.77,1.67,1.07,3.02,2.5,4.03,4.23,.87,1.49,1.51,3.17,1.92,4.99,.37,1.67,.56,3.38,.56,5.08,0,1.23-.08,2.38-.23,3.43-.14,.98-.31,1.92-.51,2.8-1.4,5.57-3.06,11.3-4.96,17.12-1.88,5.76-3.8,11.58-5.76,17.48-1.96,5.88-3.91,11.77-5.84,17.68-1.9,5.81-3.62,11.58-5.11,17.14l-1.58,5.97c-.8,2.96-1.48,5.8-2.05,8.46-.31,1.47-.5,2.63-.62,3.54,1.41-.16,2.96-.45,4.65-.87,3.08-.76,6.32-1.69,9.64-2.79,3.35-1.11,6.73-2.34,10.03-3.67,3.34-1.34,6.48-2.64,9.34-3.87,1.53-.65,2.82-1.2,3.9-1.66,1.1-.48,2.46-1.06,4.1-1.74,1.62-.68,3.78-1.57,6.48-2.69,2.69-1.11,6.4-2.66,11.13-4.65l.26-.1c.85-.3,1.6-.56,2.25-.78,2.99-.99,5.79-.63,8.03,.53,1.44,.76,2.6,1.8,3.45,3.11,.71,1.09,1.22,2.3,1.52,3.63Z"/><path class="b" d="M466.72,14.43c-.42-1.23-.99-2.41-1.71-3.53-1.54-2.38-3.55-4.41-5.99-6.05-2.28-1.53-4.87-2.74-7.68-3.58-6.14-1.85-12.57-1.61-19.13,.29-3.37,.98-6.72,2.23-9.97,3.74-3.21,1.47-6.37,3.16-9.42,5.01-2.96,1.79-5.76,3.58-8.34,5.31-4.32,2.92-8.7,6.34-13.03,10.15-4.32,3.8-8.52,7.98-12.5,12.41s-7.73,9.13-11.13,13.95c-3.43,4.86-6.47,9.85-9.02,14.84-2.59,5.05-4.66,10.14-6.15,15.13-1.53,5.16-2.31,10.21-2.31,15.01,0,4.55,.64,8.84,1.91,12.75,1.26,3.89,3.06,7.49,5.33,10.71,2.28,3.2,5.03,6.06,8.2,8.5,3.04,2.34,6.43,4.37,10.08,6.04,.68,.34,1.45,.68,2.27,1.01,1.04,.41,2.24,.75,3.65,1.01,1.25,.24,2.72,.44,4.47,.6,1.75,.16,3.8,.24,6.26,.24,.26,0,.51,0,.78-.01l17.47-3.99c6.48-2.38,12.86-5.45,18.96-9.11,6.14-3.68,11.84-8,16.94-12.82,5.14-4.86,9.68-10.36,13.48-16.33,3.87-6.06,6.78-12.69,8.66-19.72l.03-.13c.33-1.39,.56-2.57,.71-3.6,.15-1.07,.22-2.14,.22-3.19,0-2.53-.42-4.92-1.25-7.1-.86-2.24-2.13-4.24-3.78-5.93-1.64-1.68-3.63-3.01-5.89-3.94-2.24-.92-4.78-1.39-7.53-1.39-2.35,0-4.99,.42-8.07,1.29-2.73,.77-5.5,1.66-8.24,2.67-2.68,.98-5.2,1.97-7.51,2.94-1.79,.75-3.2,1.36-4.25,1.81-.51,.07-1.05,.19-1.63,.35-.76,.2-1.54,.45-2.33,.74-.6,.22-1.14,.41-1.63,.57-.06,.02-.12,.04-.17,.05-1.26,.18-2.86,.38-4.81,.6-2.41,.29-4.77,.88-7.02,1.77-2.51,1-4.71,2.48-6.55,4.4-2.26,2.36-3.41,5.45-3.41,9.17,0,1.68,.25,3.34,.76,4.93,.55,1.76,1.41,3.32,2.55,4.65,1.12,1.31,2.47,2.38,4.01,3.17,1.68,.87,3.56,1.3,5.59,1.3,1.06,0,2.15-.25,3.42-.8,.62-.26,1.28-.54,1.96-.84,.7-.3,1.38-.61,2.05-.91,.18-.09,.3-.13,.36-.15l.59-.14c.67-.2,1.85-.6,3.62-1.21,1.7-.58,3.69-1.27,5.98-2.07,2.3-.79,4.73-1.65,7.3-2.56,2-.71,3.93-1.39,5.77-2.04-1.68,2.76-3.54,5.48-5.57,8.13-3.91,5.09-8.79,9.55-14.45,13.24-1.92,1.22-4.05,2.55-6.41,4.01-2.22,1.37-4.54,2.65-6.88,3.81-2.27,1.12-4.57,2.07-6.82,2.81-1.97,.65-3.77,.98-5.34,.98-1.42,0-2.93-.3-4.49-.9-1.58-.6-3.06-1.32-4.42-2.15l-.1-.08c-3.01-2.4-5.3-4.81-6.81-7.18-1.31-2.03-1.94-4.5-1.94-7.54,0-4.2,.96-8.7,2.85-13.38,1.99-4.93,4.69-9.88,8.04-14.71,3.4-4.91,7.39-9.72,11.86-14.3,4.5-4.61,9.26-8.83,14.17-12.56,4.89-3.72,9.84-6.91,14.73-9.49,4.54-2.4,8.84-4.08,12.81-5h1.82c.26,0,.31,.04,.39,.11,.94,.81,1.92,1.7,2.89,2.64,1.23,1.2,2.58,2.32,4.01,3.35,2.09,1.49,4.58,2.24,7.39,2.24,.93,0,1.86-.09,2.74-.28,2.15-.45,3.84-1.92,4.71-4.09,.55-.92,1.01-1.99,1.38-3.23,.38-1.28,.63-2.17,.76-2.69,.22-.84,.37-1.67,.47-2.48l-.72-7.23Zm-10.27,10.72l2.71,2.45-3.66-1.13c.12-.38,.43-.89,.95-1.32Z"/><path class="b" d="M331.42,13.66c-2.33-2.19-5.05-3.9-8.09-5.09-3.04-1.2-6.22-1.8-9.48-1.8-1.56,0-3.14,.08-4.7,.25-1.9,.2-3.61,.65-5.09,1.34-.58,.25-1.11,.57-1.6,.96-1.54-1.3-3.13-2.26-4.76-2.88-2.03-.77-4.31-1.17-6.79-1.17-2.16,0-4.27,.27-6.26,.78-2.17,.56-4.38,1.63-6.76,3.27l-.25,.18c-4.08,3.18-8.21,6.73-12.26,10.54-4.04,3.8-8.02,7.9-11.82,12.18-3.81,4.29-7.45,8.78-10.83,13.36-3.41,4.61-6.54,9.36-9.31,14.12-2.79,4.79-5.24,9.62-7.3,14.37-2.09,4.84-3.72,9.65-4.84,14.29-.63,2.53-1.1,5.06-1.38,7.51-.29,2.44-.43,4.9-.43,7.31,0,5.79,.92,11.18,2.74,16,1.85,4.92,4.59,9.23,8.15,12.83,3.57,3.59,7.94,6.41,13.01,8.35,4.98,1.91,10.63,2.88,16.78,2.88s12.83-.9,19.05-2.7c6.14-1.76,12.12-4.26,17.76-7.43,5.62-3.15,10.98-6.96,15.94-11.33,4.94-4.36,9.48-9.25,13.5-14.52,4.01-5.27,7.55-10.98,10.52-16.98,2.99-6.04,5.32-12.35,6.91-18.74,1.86-7.29,2.8-14.21,2.8-20.57,0-7.29-1.29-14.21-3.83-20.58-2.58-6.46-6.41-12.09-11.38-16.73Zm-13.52,22.42c1.36,1.86,2.36,4.05,2.96,6.5,.66,2.7,1,5.59,1,8.56,0,1.91-.12,3.94-.36,6.02-.23,2.01-.61,3.97-1.15,5.9-1.43,5.47-3.35,10.69-5.68,15.53-2.35,4.87-5.07,9.43-8.07,13.56-2.99,4.11-6.27,7.82-9.76,11.04-3.49,3.22-7.15,6-10.9,8.28-3.67,2.23-7.47,3.95-11.29,5.11-3.75,1.14-7.48,1.72-11.07,1.72-2.97,0-5.7-.36-8.13-1.07-2.26-.66-4.19-1.63-5.75-2.88-1.48-1.19-2.6-2.64-3.42-4.43-.83-1.82-1.26-4.03-1.26-6.57,0-1.97,.29-4.26,.85-6.82,1.03-4.48,2.72-9.22,5.04-14.11,2.39-5.02,5.22-10.08,8.43-15.02,3.23-4.98,6.8-9.87,10.61-14.54,3.85-4.71,7.76-9.11,11.63-13.09l.15-.16c.17-.19,.58-.61,1.43-1.32,.74-.61,1.53-1.21,2.34-1.79,.37-.26,.73-.5,1.08-.72,.71,.6,1.44,1.12,2.18,1.54,1.53,.89,3.26,1.33,5.14,1.33,1.99,0,3.69-.28,5.19-.86,1.48-.57,2.77-1.35,3.83-2.32,1.03-.93,1.89-2.01,2.54-3.21,.37-.68,.7-1.34,1-1.97,2.47,.18,4.59,.7,6.3,1.55,2.17,1.09,3.85,2.47,5.14,4.24Z"/><path class="b" d="M39.31,13.9c-.29-.01-.56-.01-.82-.01-2.26,0-4.41,.83-6.22,2.41-1.26,1.09-2.41,2.44-3.42,3.99-.94,1.45-1.75,3.03-2.4,4.69-.6,1.53-1.05,2.86-1.39,4.09l-.87,14.09-1.35,5.6c-1.21,4.71-2.55,9.83-3.99,15.2s-2.95,10.82-4.5,16.21c-1.56,5.43-3.2,10.94-4.89,16.38-1.67,5.36-3.32,10.56-4.93,15.44-1.14,2.77-2.16,5.59-3.02,8.37-1,3.2-1.51,6.58-1.51,10.06,0,1.04,.17,2.09,.5,3.13,.32,1.03,.8,2,1.39,2.86,.6,.88,1.32,1.65,2.14,2.29,1.29,1.02,2.81,1.56,4.4,1.56h2.46c2.09,0,4.19-.34,6.23-.99,.48-.15,.95-.33,1.42-.52,.02,.03,.05,.07,.07,.1,1.1,1.34,2.29,2.44,3.55,3.25,1.33,.85,2.79,1.45,4.35,1.78,1.33,.28,2.8,.42,4.51,.42,3.01,0,6.25-.35,9.6-1.02,3.2-.65,6.52-1.51,9.86-2.55,3.34-1.04,6.69-2.26,9.95-3.63,3.21-1.36,6.32-2.77,9.24-4.22,2.92-1.44,5.66-2.89,8.15-4.3,2.55-1.45,4.76-2.81,6.63-4.1,6.03-4.28,10.54-9.03,13.38-14.12,2.9-5.19,4.37-10.38,4.37-15.45,0-4.12-1.06-7.87-3.16-11.14-2.01-3.11-5.02-5.87-8.97-8.19-3.63-2.14-8.2-4.01-13.6-5.56-.37-.1-.75-.21-1.14-.32,2.59-1.03,5.09-2.08,7.48-3.12,7.34-3.2,13.75-6.72,19.04-10.48,5.52-3.91,9.88-8.26,12.97-12.92,3.29-4.97,4.96-10.63,4.96-16.82,0-3.99-.94-7.5-2.79-10.45-1.78-2.81-4.17-5.11-7.11-6.83-2.72-1.59-5.84-2.75-9.27-3.44-3.22-.65-6.58-.98-10-.98-2.61,0-5.2,.13-7.71,.38-2.48,.25-5.09,.64-7.73,1.17-2.61,.52-5.4,1.2-8.29,2.02-2.86,.82-6.05,1.84-9.44,3.03-2.19,.75-3.96,1.33-5.31,1.77-1.32,.42-2.38,.74-3.15,.95-.81,.23-1.19,.28-1.3,.29-1.36,.14-2.98,.04-4.9-.14-1.04-.1-1.96-.17-2.78-.2m-5.97,103.64l-3.36-.29h-.06c1.22-4.81,2.43-9.58,3.63-14.33,1.3-5.14,2.79-10.52,4.44-16.04,1.68,.33,3.53,.67,5.54,1.02,2.19,.38,4.5,.77,6.93,1.15,2.39,.38,4.61,.75,6.68,1.1,2.04,.34,3.83,.66,5.35,.94,1.45,.28,2.47,.47,3.07,.59,3.25,.79,5.86,1.87,7.77,3.21,1.57,1.1,1.57,1.79,1.57,2.01,0,.66-.16,1.31-.48,1.98-.46,.97-1.07,1.91-1.79,2.79-.79,.94-1.68,1.82-2.64,2.6-1.01,.82-1.98,1.52-2.89,2.11-2.82,1.49-5.73,2.9-8.65,4.19-2.96,1.31-5.91,2.47-8.77,3.44-2.86,.98-5.65,1.79-8.3,2.42-2.44,.59-4.69,.99-6.7,1.21-.28-.02-.71-.05-1.34-.1ZM59.1,53.43c-3.75,1.66-7.46,3.21-11.02,4.62-.29,.11-.57,.23-.86,.34,.24-.76,.46-1.49,.67-2.19,.5-1.66,.93-3.1,1.29-4.31,.24-.81,.43-1.5,.57-2.08,.44-.74,.85-1.61,1.26-2.63,.46-1.17,.91-2.41,1.35-3.7,.42-1.22,.8-2.35,1.13-3.37,.11-.36,.2-.61,.27-.78,.36-.34,1.26-1.06,3.31-2.08,2.46-1.23,5.33-2.38,8.53-3.41,3.26-1.05,6.68-1.93,10.16-2.62,3.36-.67,6.37-1,8.96-1,2.03,0,3.27,.23,3.94,.42,1.04,.29,1.53,.61,1.73,.77,.26,.2,.45,.41,.52,.57,.1,.22,.15,.39,.15,.53,0,.58-.16,1.2-.5,1.89-.49,.99-1.14,1.96-1.94,2.89-.87,1.01-1.87,1.97-2.99,2.85-1.15,.91-2.32,1.68-3.46,2.3l-.76,.41c-3.58,1.76-7.16,3.51-10.77,5.24-3.87,1.87-7.76,3.66-11.54,5.34Z"/></svg>