<?xml version="1.0" encoding="UTF-8"?><svg id="a" xmlns="http://www.w3.org/2000/svg" viewBox="0 0 469.76 144.3"><defs><style>.cls-1{fill:#231f20;}</style></defs><path class="cls-1" d="M217.12,96.69c.26,1.13,.39,2.27,.39,3.41,0,1.65-.13,3.1-.41,4.42-.26,1.21-.54,2.22-.85,3.08l-.19,.51-.28,.46c-.99,1.56-2.27,2.99-3.8,4.24-1.34,1.09-2.78,2.07-4.27,2.88-1.4,.77-2.8,1.43-4.15,1.97-1.24,.5-2.26,.87-3.13,1.14l-3.6,1.36c-1.54,.58-3.21,1.22-5.01,1.92-1.83,.7-3.71,1.43-5.66,2.16l-5.45,2.07c-1.7,.64-3.21,1.22-4.53,1.71-1.33,.51-2.29,.86-2.87,1.05-2.49,.93-5.25,1.97-8.28,3.12-3.07,1.17-6.21,2.32-9.33,3.4-3.15,1.09-6.18,2.02-8.99,2.78-3.18,.85-5.83,1.27-8.11,1.27-2.71,0-4.86-.23-6.58-.71-1.7-.48-3.27-1.15-4.66-2.01-1.21-.75-2.45-1.66-3.66-2.7-.83-.71-2-1.54-3.47-2.45-2.44-1.5-4.22-3.62-5.27-6.29-.87-2.21-1.31-4.6-1.31-7.1,0-1.13,.08-2.43,.25-3.84,.16-1.3,.36-2.69,.61-4.14,.25-1.42,.53-2.84,.84-4.21,.33-1.44,.7-2.76,1.11-3.92l4.91-14.89c2.63-8.08,5.15-15.84,7.55-23.27,2.38-7.37,4.51-14.27,6.33-20.52,1.8-6.18,3.25-11.73,4.31-16.47,1.02-4.55,1.58-8.16,1.69-10.72l.02-.53,.13-.5c.94-3.7,2.69-6.74,5.2-9.04,2.69-2.47,6-3.78,9.58-3.78,2.37,0,4.5,.59,6.31,1.77,1.67,1.07,3.02,2.5,4.03,4.23,.87,1.49,1.51,3.17,1.92,4.99,.37,1.67,.56,3.38,.56,5.08,0,1.23-.08,2.38-.23,3.43-.14,.98-.31,1.92-.51,2.8-1.4,5.57-3.06,11.3-4.96,17.12-1.88,5.76-3.8,11.58-5.76,17.48-1.96,5.88-3.91,11.77-5.84,17.68-1.9,5.81-3.62,11.58-5.11,17.14l-1.58,5.97c-.8,2.96-1.48,5.8-2.05,8.46-.31,1.47-.5,2.63-.62,3.54,1.41-.16,2.96-.45,4.65-.87,3.08-.76,6.32-1.69,9.64-2.79,3.35-1.11,6.73-2.34,10.03-3.67,3.34-1.34,6.48-2.64,9.34-3.87,1.53-.65,2.82-1.2,3.9-1.66,1.1-.48,2.46-1.06,4.1-1.74,1.62-.68,3.78-1.57,6.48-2.69,2.69-1.11,6.4-2.66,11.13-4.65l.26-.1c.85-.3,1.6-.56,2.25-.78,2.99-.99,5.79-.63,8.03,.53,1.44,.76,2.6,1.8,3.45,3.11,.71,1.09,1.22,2.3,1.52,3.63h0Z"/><path class="cls-1" d="M469.76,69.07c0,1.05-.07,2.12-.22,3.19-.15,1.03-.38,2.21-.71,3.6l-.03,.13c-1.88,7.03-4.79,13.66-8.66,19.72-3.8,5.97-8.34,11.47-13.48,16.33-5.1,4.82-10.8,9.14-16.94,12.82-6.1,3.66-12.48,6.73-18.96,9.11l-17.47,3.99c-.27,.01-.52,.01-.78,.01-2.46,0-4.51-.08-6.26-.24-1.75-.16-3.22-.36-4.47-.6-1.41-.26-2.61-.6-3.65-1.01-.82-.33-1.59-.67-2.27-1.01-3.65-1.67-7.04-3.7-10.08-6.04-3.17-2.44-5.92-5.3-8.2-8.5-2.27-3.22-4.07-6.82-5.33-10.71-1.27-3.91-1.91-8.2-1.91-12.75,0-4.8,.78-9.85,2.31-15.01,1.49-4.99,3.56-10.08,6.15-15.13,2.55-4.99,5.59-9.98,9.02-14.84,3.4-4.82,7.15-9.52,11.13-13.95,3.98-4.43,8.18-8.61,12.5-12.41,4.33-3.81,8.71-7.23,13.03-10.15,2.58-1.73,5.38-3.52,8.34-5.31,3.05-1.85,6.21-3.54,9.42-5.01,3.25-1.51,6.6-2.76,9.97-3.74,6.56-1.9,12.99-2.14,19.13-.29,2.81,.84,5.4,2.05,7.68,3.58,2.44,1.64,4.45,3.67,5.99,6.05,.72,1.12,1.29,2.3,1.71,3.53l.72,7.23c-.1,.81-.25,1.64-.47,2.48-.13,.52-.38,1.41-.76,2.69-.37,1.24-.83,2.31-1.38,3.23-.87,2.17-2.56,3.64-4.71,4.09-.88,.19-1.81,.28-2.74,.28-2.81,0-5.3-.75-7.39-2.24-1.43-1.03-2.78-2.15-4.01-3.35-.97-.94-1.95-1.83-2.89-2.64-.08-.07-.13-.11-.39-.11h-1.82c-3.97,.92-8.27,2.6-12.81,5-4.89,2.58-9.84,5.77-14.73,9.49-4.91,3.73-9.67,7.95-14.17,12.56-4.47,4.58-8.46,9.39-11.86,14.3-3.35,4.83-6.05,9.78-8.04,14.71-1.89,4.68-2.85,9.18-2.85,13.38,0,3.04,.63,5.51,1.94,7.54,1.51,2.37,3.8,4.78,6.81,7.18l.1,.08c1.36,.83,2.84,1.55,4.42,2.15,1.56,.6,3.07,.9,4.49,.9,1.57,0,3.37-.33,5.34-.98,2.25-.74,4.55-1.69,6.82-2.81,2.34-1.16,4.66-2.44,6.88-3.81,2.36-1.46,4.49-2.79,6.41-4.01,5.66-3.69,10.54-8.15,14.45-13.24,2.03-2.65,3.89-5.37,5.57-8.13-1.84,.65-3.77,1.33-5.77,2.04-2.57,.91-5,1.77-7.3,2.56-2.29,.8-4.28,1.49-5.98,2.07-1.77,.61-2.95,1.01-3.62,1.21l-.59,.14c-.06,.02-.18,.06-.36,.15-.67,.3-1.35,.61-2.05,.91-.68,.3-1.34,.58-1.96,.84-1.27,.55-2.36,.8-3.42,.8-2.03,0-3.91-.43-5.59-1.3-1.54-.79-2.89-1.86-4.01-3.17-1.14-1.33-2-2.89-2.55-4.65-.51-1.59-.76-3.25-.76-4.93,0-3.72,1.15-6.81,3.41-9.17,1.84-1.92,4.04-3.4,6.55-4.4,2.25-.89,4.61-1.48,7.02-1.77,1.95-.22,3.55-.42,4.81-.6,.05-.01,.11-.03,.17-.05,.49-.16,1.03-.35,1.63-.57,.79-.29,1.57-.54,2.33-.74,.58-.16,1.12-.28,1.63-.35,1.05-.45,2.46-1.06,4.25-1.81,2.31-.97,4.83-1.96,7.51-2.94,2.74-1.01,5.51-1.9,8.24-2.67,3.08-.87,5.72-1.29,8.07-1.29,2.75,0,5.29,.47,7.53,1.39,2.26,.93,4.25,2.26,5.89,3.94,1.65,1.69,2.92,3.69,3.78,5.93,.83,2.18,1.25,4.57,1.25,7.1Z"/><path class="cls-1" d="M331.42,13.66c-2.33-2.19-5.05-3.9-8.09-5.09-3.04-1.2-6.22-1.8-9.48-1.8-1.56,0-3.14,.08-4.7,.25-1.9,.2-3.61,.65-5.09,1.34-.58,.25-1.11,.57-1.6,.96-1.54-1.3-3.13-2.26-4.76-2.88-2.03-.77-4.31-1.17-6.79-1.17-2.16,0-4.27,.27-6.26,.78-2.17,.56-4.38,1.63-6.76,3.27l-.25,.18c-4.08,3.18-8.21,6.73-12.26,10.54-4.04,3.8-8.02,7.9-11.82,12.18-3.81,4.29-7.45,8.78-10.83,13.36-3.41,4.61-6.54,9.36-9.31,14.12-2.79,4.79-5.24,9.62-7.3,14.37-2.09,4.84-3.72,9.65-4.84,14.29-.63,2.53-1.1,5.06-1.38,7.51-.29,2.44-.43,4.9-.43,7.31,0,5.79,.92,11.18,2.74,16,1.85,4.92,4.59,9.23,8.15,12.83,3.57,3.59,7.94,6.41,13.01,8.35,4.98,1.91,10.63,2.88,16.78,2.88s12.83-.9,19.05-2.7c6.14-1.76,12.12-4.26,17.76-7.43,5.62-3.15,10.98-6.96,15.94-11.33,4.94-4.36,9.48-9.25,13.5-14.52,4.01-5.27,7.55-10.98,10.52-16.98,2.99-6.04,5.32-12.35,6.91-18.74,1.86-7.29,2.8-14.21,2.8-20.57,0-7.29-1.29-14.21-3.83-20.58-2.58-6.46-6.41-12.09-11.38-16.73h0Zm-13.52,22.42c1.36,1.86,2.36,4.05,2.96,6.5,.66,2.7,1,5.59,1,8.56,0,1.91-.12,3.94-.36,6.02-.23,2.01-.61,3.97-1.15,5.9-1.43,5.47-3.35,10.69-5.68,15.53-2.35,4.87-5.07,9.43-8.07,13.56-2.99,4.11-6.27,7.82-9.76,11.04-3.49,3.22-7.15,6-10.9,8.28-3.67,2.23-7.47,3.95-11.29,5.11-3.75,1.14-7.48,1.72-11.07,1.72-2.97,0-5.7-.36-8.13-1.07-2.26-.66-4.19-1.63-5.75-2.88-1.48-1.19-2.6-2.64-3.42-4.43-.83-1.82-1.26-4.03-1.26-6.57,0-1.97,.29-4.26,.85-6.82,1.03-4.48,2.72-9.22,5.04-14.11,2.39-5.02,5.22-10.08,8.43-15.02,3.23-4.98,6.8-9.87,10.61-14.54,3.85-4.71,7.76-9.11,11.63-13.09l.15-.16c.17-.19,.58-.61,1.43-1.32,.74-.61,1.53-1.21,2.34-1.79,.37-.26,.73-.5,1.08-.72,0,0,2.3-1.48,3.08-1.89,2.45-1.33,3.47-1.84,5.23-2.49,1.92-.7,2.71-.87,4.02-1.08,2.58-.47,4.18-.74,5.17-.79,1.66-.02,.17,0,1.83,0,.96,.06,1.87,.35,1.87,.35,2.88,.78,3.26,1.1,4.97,1.95,2.17,1.09,3.85,2.47,5.14,4.24h0Z"/><path class="cls-1" d="M39.31,13.9c-.29-.01-.56-.01-.82-.01-2.26,0-4.41,.83-6.22,2.41-1.26,1.09-2.41,2.44-3.42,3.99-.94,1.45-1.75,3.03-2.4,4.69-.6,1.53-1.05,2.86-1.39,4.09l-.87,14.09-1.35,5.6c-1.21,4.71-2.55,9.83-3.99,15.2s-2.95,10.82-4.5,16.21c-1.56,5.43-3.2,10.94-4.89,16.38-1.67,5.36-3.32,10.56-4.93,15.44-1.14,2.77-2.16,5.59-3.02,8.37-1,3.2-1.51,6.58-1.51,10.06,0,1.04,.17,2.09,.5,3.13,.32,1.03,.8,2,1.39,2.86,.6,.88,1.32,1.65,2.14,2.29,1.29,1.02,2.81,1.56,4.4,1.56h2.46c2.09,0,4.19-.34,6.23-.99,.48-.15,.95-.33,1.42-.52,.02,.03,.05,.07,.07,.1,1.1,1.34,2.29,2.44,3.55,3.25,1.33,.85,2.79,1.45,4.35,1.78,1.33,.28,2.8,.42,4.51,.42,3.01,0,6.25-.35,9.6-1.02,3.2-.65,6.52-1.51,9.86-2.55,3.34-1.04,6.69-2.26,9.95-3.63,3.21-1.36,6.32-2.77,9.24-4.22,2.92-1.44,5.66-2.89,8.15-4.3,2.55-1.45,4.76-2.81,6.63-4.1,6.03-4.28,10.54-9.03,13.38-14.12,2.9-5.19,4.37-10.38,4.37-15.45,0-4.12-1.06-7.87-3.16-11.14-2.01-3.11-5.02-5.87-8.97-8.19-3.63-2.14-8.2-4.01-13.6-5.56-.37-.1-.75-.21-1.14-.32,2.59-1.03,5.09-2.08,7.48-3.12,7.34-3.2,13.75-6.72,19.04-10.48,5.52-3.91,9.88-8.26,12.97-12.92,3.29-4.97,4.96-10.63,4.96-16.82,0-3.99-.94-7.5-2.79-10.45-1.78-2.81-4.17-5.11-7.11-6.83-2.72-1.59-5.84-2.75-9.27-3.44-3.22-.65-6.58-.98-10-.98-2.61,0-5.2,.13-7.71,.38-2.48,.25-5.09,.64-7.73,1.17-2.61,.52-5.4,1.2-8.29,2.02-2.86,.82-6.05,1.84-9.44,3.03-2.19,.75-3.96,1.33-5.31,1.77-1.32,.42-2.38,.74-3.15,.95-.81,.23-1.19,.28-1.3,.29-1.36,.14-2.98,.04-4.9-.14-1.04-.1-1.96-.17-2.78-.2m-5.97,103.64l-3.36-.29h-.06c1.22-4.81,2.43-9.58,3.63-14.33,1.3-5.14,2.79-10.52,4.44-16.04,1.68,.33,3.53,.67,5.54,1.02,2.19,.38,4.5,.77,6.93,1.15,2.39,.38,4.61,.75,6.68,1.1,2.04,.34,3.83,.66,5.35,.94,1.45,.28,2.47,.47,3.07,.59,3.25,.79,5.86,1.87,7.77,3.21,1.57,1.1,1.57,1.79,1.57,2.01,0,.66-.16,1.31-.48,1.98-.46,.97-1.07,1.91-1.79,2.79-.79,.94-1.68,1.82-2.64,2.6-1.01,.82-1.98,1.52-2.89,2.11-2.82,1.49-5.73,2.9-8.65,4.19-2.96,1.31-5.91,2.47-8.77,3.44-2.86,.98-5.65,1.79-8.3,2.42-2.44,.59-4.69,.99-6.7,1.21-.28-.02-.71-.05-1.34-.1h0ZM59.1,53.43c-3.75,1.66-7.46,3.21-11.02,4.62-.29,.11-.57,.23-.86,.34,.24-.76,.46-1.49,.67-2.19,.5-1.66,.93-3.1,1.29-4.31,.24-.81,.43-1.5,.57-2.08,.44-.74,.85-1.61,1.26-2.63,.46-1.17,.91-2.41,1.35-3.7,.42-1.22,.8-2.35,1.13-3.37,.11-.36,.2-.61,.27-.78,.36-.34,1.26-1.06,3.31-2.08,2.46-1.23,5.33-2.38,8.53-3.41,3.26-1.05,6.68-1.93,10.16-2.62,3.36-.67,6.37-1,8.96-1,2.03,0,3.27,.23,3.94,.42,1.04,.29,1.53,.61,1.73,.77,.26,.2,.45,.41,.52,.57,.1,.22,.15,.39,.15,.53,0,.58-.16,1.2-.5,1.89-.49,.99-1.14,1.96-1.94,2.89-.87,1.01-1.87,1.97-2.99,2.85-1.15,.91-2.32,1.68-3.46,2.3l-.76,.41c-3.58,1.76-7.16,3.51-10.77,5.24-3.87,1.87-7.76,3.66-11.54,5.34Z"/></svg>